<svg width="32" height="32" viewBox="0 0 32 32" fill="none" xmlns="http://www.w3.org/2000/svg">
  <rect x="6" y="4" width="20" height="24" rx="2" fill="#8B7355"/>
  <rect x="6" y="4" width="20" height="24" rx="2" fill="url(#paint0_linear)" opacity="0.2"/>
  <rect x="9" y="7" width="14" height="2" rx="1" fill="#FAF8F3"/>
  <rect x="9" y="11" width="10" height="1" rx="0.5" fill="#FAF8F3" opacity="0.7"/>
  <rect x="9" y="14" width="12" height="1" rx="0.5" fill="#FAF8F3" opacity="0.7"/>
  <rect x="9" y="17" width="8" height="1" rx="0.5" fill="#FAF8F3" opacity="0.7"/>
  <rect x="9" y="20" width="11" height="1" rx="0.5" fill="#FAF8F3" opacity="0.7"/>
  <rect x="9" y="23" width="9" height="1" rx="0.5" fill="#FAF8F3" opacity="0.7"/>
  <path d="M4 8C4 6.89543 4.89543 6 6 6V28C4.89543 28 4 27.1046 4 26V8Z" fill="#6B5D4F"/>
  <defs>
    <linearGradient id="paint0_linear" x1="16" y1="4" x2="16" y2="28" gradientUnits="userSpaceOnUse">
      <stop stop-color="#FFFFFF"/>
      <stop offset="1" stop-color="#FFFFFF" stop-opacity="0"/>
    </linearGradient>
  </defs>
</svg>